<svg width="226" height="66" viewBox="0 0 226 66" fill="none" xmlns="http://www.w3.org/2000/svg">
<path d="M0.0197754 39.0767H15.3847V43.2202H5.03569V46.8483H13.9176V50.754H5.03569V55.0959H15.5632V59.3584H0.0197754V39.0964V39.0767Z" fill="white"/>
<path d="M39.0172 52.2013V39.0767H44.0331V52.3797C44.0331 54.3623 45.0443 55.6906 47.5225 55.6906C49.8421 55.6906 50.9523 54.2632 50.9523 52.2806V39.0767H55.9683V52.2013C55.9683 56.8802 53.153 59.7153 47.5225 59.7153C41.892 59.7153 39.0172 56.9397 39.0172 52.2013Z" fill="white"/>
<path d="M58.6643 39.0767H63.6802V59.3386H58.6643V39.0767Z" fill="white"/>
<path d="M72.0072 43.3193H66.1189V39.0568H82.9906V43.3193H77.0429V59.3385H72.027V43.3193H72.0072Z" fill="white"/>
<path d="M90.7823 51.8642L83.9226 39.0767H89.3945L92.0115 44.3305C92.6856 45.7183 93.3398 47.4233 93.3398 47.4233H93.3993C93.3993 47.4233 94.113 45.7183 94.7871 44.3305L97.3645 39.0767H102.658L95.7982 51.8642V59.3584H90.7823V51.8642Z" fill="white"/>
<path d="M129.958 56.9595C128.193 55.0364 127.242 52.3599 127.242 49.2671C127.242 46.1743 128.312 43.2797 130.255 41.3566C131.921 39.6516 134.28 38.6603 137.194 38.6603C142.409 38.6603 145.521 41.4359 146.175 45.6985H141.298C140.922 44.0529 139.573 42.8039 137.353 42.8039C134.002 42.8039 132.337 45.5795 132.337 49.2671C132.337 52.9547 134.26 55.7303 137.432 55.7303C140.069 55.7303 141.635 53.9658 141.834 52.1815V52.122H138.027V48.4344H146.473V59.3188H142.964L142.686 56.8802H142.627C141.298 58.942 139.316 59.7748 136.877 59.7748C133.983 59.7748 131.623 58.7636 129.958 56.9396V56.9595Z" fill="white"/>
<path d="M148.852 39.0767H158.547C162.571 39.0767 165.625 41.1385 165.625 44.9252C165.625 47.2845 164.455 49.0093 162.115 49.8222V49.9015C163.88 50.4963 164.772 51.6065 165.069 53.6089C165.486 56.2656 165.208 58.8231 165.922 59.0809V59.3386H161.045C160.509 59.0214 160.589 56.6422 160.272 54.6398C160.014 52.7762 159.062 51.7453 156.901 51.7453H153.868V59.3386H148.852V39.0767ZM157.635 48.0379C159.617 48.0379 160.648 47.1061 160.648 45.5795C160.648 44.0529 159.677 43.0616 157.754 43.0616H153.868V48.0577H157.635V48.0379Z" fill="white"/>
<path d="M167.131 49.2472C167.131 43.1805 171.017 38.6801 177.143 38.6801C183.269 38.6801 187.175 43.1805 187.175 49.2472C187.175 55.3139 183.289 59.8144 177.143 59.8144C170.997 59.8144 167.131 55.3139 167.131 49.2472ZM182.08 49.2472C182.08 45.5596 180.454 42.7246 177.183 42.7246C173.912 42.7246 172.246 45.5596 172.246 49.2472C172.246 52.9348 173.912 55.7303 177.183 55.7303C180.454 55.7303 182.08 52.915 182.08 49.2472Z" fill="white"/>
<path d="M189.396 52.2013V39.0767H194.411V52.3797C194.411 54.3623 195.423 55.6906 197.901 55.6906C200.22 55.6906 201.331 54.2632 201.331 52.2806V39.0767H206.347V52.2013C206.347 56.8802 203.531 59.7153 197.901 59.7153C192.27 59.7153 189.396 56.9397 189.396 52.2013Z" fill="white"/>
<path d="M208.944 39.0767H218.064C220.522 39.0767 222.346 39.7507 223.595 40.9403C224.903 42.1497 225.637 43.8943 225.637 45.9364C225.637 49.8222 222.941 52.578 218.777 52.578H214.039V59.3584H208.944V39.0964V39.0767ZM217.746 48.593C219.57 48.593 220.581 47.5224 220.581 45.8967C220.581 44.271 219.531 43.2797 217.746 43.2797H214.039V48.5732H217.746V48.593Z" fill="white"/>
<path d="M55.1949 63.0658C55.0759 63.0658 54.9173 63.1649 54.7389 63.2244C52.6572 64.0373 50.4962 63.9381 48.9101 63.9381C46.8681 63.9381 42.8434 63.6011 36.4794 60.3497L32.5142 58.0697C35.1312 56.2061 36.638 53.034 36.638 49.2671C36.638 43.2004 32.7521 38.7 26.6061 38.7C20.4601 38.7 16.5941 43.2004 16.5941 49.2671C16.5941 55.3337 20.48 59.8342 26.6061 59.8342C27.3595 59.8342 28.0534 59.7747 28.7275 59.636L32.5737 61.8961C37.5499 64.8303 40.7816 66 45.3217 66C49.8618 66 53.2519 64.5924 55.0561 63.7002C55.2742 63.6011 55.413 63.5218 55.413 63.3434C55.413 63.1848 55.294 63.0658 55.1354 63.0658H55.1949ZM21.7092 49.2472C21.7092 45.5596 23.3745 42.7246 26.6458 42.7246C29.917 42.7246 31.5427 45.5596 31.5427 49.2472C31.5427 52.9348 29.917 55.7303 26.6458 55.7303C23.3745 55.7303 21.7092 52.915 21.7092 49.2472Z" fill="white"/>
<path d="M0.01983 0.693848H25.9718V7.96993H8.64404V15.0477H23.1367V22.0264H8.64404V35.5872H0V0.693848H0.01983Z" fill="white"/>
<path d="M28.4301 0.693856H45.1233C52.0425 0.693856 57.3162 4.26251 57.3162 10.7455C57.3162 14.79 55.3138 17.7639 51.2693 19.1913V19.3301C54.3027 20.361 55.8491 22.2643 56.3447 25.714C57.0783 30.2937 56.5826 34.695 57.8118 35.1312V35.5674H49.4255C48.4937 35.0321 48.6523 30.9282 48.117 27.4586C47.6809 24.2469 46.0155 22.4824 42.3081 22.4824H37.0939V35.5674H28.4499V0.674011L28.4301 0.693856ZM43.5571 16.0985C46.9672 16.0985 48.7317 14.4926 48.7317 11.8558C48.7317 9.21895 47.0663 7.51393 43.7554 7.51393H37.0741V16.0985H43.5571Z" fill="white"/>
<path d="M60.1909 0.693848H86.6385V7.81129H68.835V14.0564H84.1008V20.7972H68.835V28.2715H86.9359V35.5872H60.1909V0.693848Z" fill="white"/>
<path d="M89.8502 0.693848H116.298V7.81129H98.4943V14.0564H113.76V20.7972H98.4943V28.2715H116.595V35.5872H89.8502V0.693848Z" fill="white"/>
<path d="M119.53 0.693848H134.419C144.074 0.693848 150.577 7.67253 150.577 18.3586C150.577 24.5046 148.436 29.4412 144.53 32.4151C141.794 34.4571 138.285 35.5872 133.883 35.5872H119.53V0.693848ZM133.229 28.3111C138.879 28.3111 141.814 24.7425 141.814 18.3586C141.814 11.9747 138.741 7.91046 133.328 7.91046H128.154V28.3111H133.229Z" fill="white"/>
<path d="M152.5 18.2001C152.5 7.75192 159.181 0 169.728 0C180.276 0 186.997 7.75192 186.997 18.2001C186.997 28.6483 180.315 36.4001 169.728 36.4001C159.142 36.4001 152.5 28.6483 152.5 18.2001ZM178.214 18.2001C178.214 11.8559 175.438 6.97871 169.768 6.97871C164.098 6.97871 161.283 11.8559 161.283 18.2001C161.283 24.5443 164.157 29.3818 169.768 29.3818C175.379 29.3818 178.214 24.5443 178.214 18.2001Z" fill="white"/>
<path d="M189.396 0.693848H201.013L205.256 15.9597C205.891 18.1604 207.259 23.9098 207.259 23.9098H207.358C207.358 23.9098 208.726 18.1604 209.301 15.9597L213.603 0.693848H225.32V35.5872H217.409V18.0215C217.409 16.6139 217.548 11.0429 217.548 11.0429H217.449C217.449 11.0429 216.22 16.2571 215.843 17.5259L210.827 35.5872H203.71L198.733 17.5854C198.337 16.3166 197.128 11.0429 197.128 11.0429H197.028C197.028 11.0429 197.167 16.6536 197.167 18.0612V35.5872H189.415V0.693848H189.396Z" fill="white"/>
<path fill-rule="evenodd" clip-rule="evenodd" d="M113.899 40.3454L111.857 46.6897H105.176L110.588 50.5953L108.506 56.9396L113.899 52.9942L119.292 56.9396L117.21 50.5953L122.622 46.6897H115.941L113.899 40.3454Z" fill="#E8B25A"/>
</svg>
